<?xml version="1.0" encoding="iso-8859-1"?>
<!-- Generator: Adobe Illustrator 18.1.1, SVG Export Plug-In . SVG Version: 6.00 Build 0)  -->
<svg version="1.1" id="Layer_1.svg" xmlns="http://www.w3.org/2000/svg" xmlns:xlink="http://www.w3.org/1999/xlink" x="0px"
	 y="0px" viewBox="0 0 222 60" style="enable-background:new 0 0 222 60;" xml:space="preserve">
<g id="_x2E_svg_1_">
	<path style="fill:#34B233;" d="M65.992,59.768H3.02c-2.185,0-2.993-0.794-2.993-2.53V12.584c0-1.174,0.58-2.272,1.556-2.938
		c0.029-0.02,0.059-0.039,0.087-0.057l0.043-0.026C2.88,8.817,4.078,8.107,5.274,7.45c18.121-9.912,40.342-9.912,58.462,0
		c1.197,0.657,2.394,1.367,3.561,2.112l0.042,0.026c0.029,0.018,0.058,0.037,0.088,0.057c0.976,0.667,1.557,1.764,1.557,2.938
		v44.654C68.984,58.975,68.176,59.768,65.992,59.768z"/>
	<g>
		<path style="fill-rule:evenodd;clip-rule:evenodd;fill:#666C70;" d="M215.149,59.733V27.142c0-1.132-0.119-1.373-1.225-1.702
			c-1.266-0.381-2.316-0.588-3.74-0.588c-1.45,0-2.471,0.207-3.742,0.588c-1.106,0.329-1.223,0.57-1.223,1.702v32.591h-5.02V25.091
			c0-1.767,0.866-2.769,2.309-3.468c1.021-0.492,2.096-0.914,3.194-1.202c1.455-0.382,2.966-0.527,4.482-0.527
			c1.516,0,3.024,0.145,4.482,0.527c1.097,0.288,2.173,0.71,3.194,1.202c1.442,0.699,2.306,1.701,2.306,3.468v34.642H215.149z"/>
		<path style="fill-rule:evenodd;clip-rule:evenodd;fill:#666C70;" d="M142.851,39.831v1.032c0,1.133-0.118,1.373-1.223,1.703
			c-1.27,0.381-2.318,0.525-3.743,0.587c-1.424-0.062-2.472-0.206-3.742-0.587c-1.106-0.33-1.223-0.57-1.223-1.703v-1.032v-3.324
			v-9.365c0-1.132,0.118-1.373,1.223-1.702c1.269-0.381,2.317-0.527,3.742-0.588c1.425,0.061,2.473,0.207,3.743,0.588
			c1.105,0.329,1.223,0.57,1.223,1.702v9.365V39.831L142.851,39.831z M137.885,54.785v0.002c-1.424-0.062-2.472-0.186-3.742-0.567
			c-1.106-0.331-1.223-0.569-1.223-1.703v-5.069c0.161,0.047,0.322,0.093,0.483,0.137c1.457,0.38,2.966,0.527,4.482,0.527
			c1.517,0,3.026-0.147,4.481-0.527c1.098-0.289,2.174-0.711,3.194-1.203c1.444-0.698,2.308-1.7,2.308-3.466v-3.086v-3.324V25.091
			c0-1.767-0.864-2.769-2.308-3.468c-1.02-0.492-2.096-0.914-3.194-1.202c-1.456-0.382-2.964-0.527-4.481-0.527
			c-1.515,0-3.025,0.145-4.482,0.527c-1.097,0.288-2.171,0.71-3.192,1.202c-1.444,0.699-2.309,1.701-2.309,3.468v11.416v3.324v3.086
			v11.654c0,1.767,0.866,2.77,2.309,3.466c1.021,0.492,2.095,0.916,3.192,1.202c1.457,0.383,2.966,0.529,4.482,0.529v-0.002h7.359
			v-4.98H137.885z"/>
		<path style="fill-rule:evenodd;clip-rule:evenodd;fill:#666C70;" d="M113.786,54.785h7.36v4.981h-7.36v0.001
			c-1.515,0-3.024-0.145-4.48-0.529c-1.098-0.286-2.174-0.71-3.194-1.202c-1.442-0.697-2.307-1.699-2.307-3.466v-14.74v-14.74
			c0-1.767,0.865-2.769,2.307-3.468c1.02-0.492,2.097-0.914,3.194-1.202c1.457-0.382,2.965-0.527,4.48-0.527
			c1.517,0,3.026,0.145,4.481,0.527c1.098,0.288,2.174,0.71,3.194,1.202c1.443,0.699,2.309,1.701,2.309,3.468v14.74h-5.019V27.142
			c0-1.132-0.117-1.373-1.223-1.702c-1.269-0.381-2.316-0.527-3.743-0.588c-1.425,0.061-2.471,0.207-3.74,0.588
			c-1.107,0.329-1.224,0.57-1.224,1.702v12.688v12.688c0,1.133,0.117,1.372,1.224,1.703
			C111.314,54.602,112.361,54.724,113.786,54.785z"/>
		<path style="fill-rule:evenodd;clip-rule:evenodd;fill:#666C70;" d="M154.627,19.894h7.358h0.242l0,0
			c1.433,0.016,2.859,0.167,4.239,0.527c1.096,0.288,2.172,0.71,3.191,1.202c1.445,0.699,2.309,1.701,2.309,3.468v14.74v14.74
			c0,1.767-0.863,2.77-2.309,3.468c-1.019,0.492-2.095,0.914-3.191,1.202c-1.458,0.382-2.966,0.529-4.482,0.529
			c-1.516,0-3.025-0.146-4.481-0.529c-1.097-0.287-2.174-0.71-3.192-1.202c-1.445-0.698-2.31-1.7-2.31-3.468v-14.74h5.019v12.688
			c0,1.133,0.117,1.373,1.223,1.703c1.27,0.381,2.318,0.525,3.742,0.588c1.423-0.062,2.471-0.207,3.739-0.588
			c1.106-0.33,1.227-0.569,1.227-1.703V39.831V27.143c0-1.133-0.121-1.374-1.227-1.703c-1.269-0.38-2.316-0.524-3.739-0.588h-7.358
			V19.894z"/>
		<path style="fill-rule:evenodd;clip-rule:evenodd;fill:#666C70;" d="M82.087,19.894h7.601c1.515,0,3.025,0.145,4.481,0.527
			c1.096,0.288,2.173,0.71,3.191,1.202c1.445,0.699,2.31,1.701,2.31,3.468v14.74v14.74c0,1.767-0.864,2.77-2.31,3.468
			c-1.017,0.492-2.095,0.914-3.191,1.202c-1.457,0.382-2.966,0.529-4.481,0.529c-1.516,0-3.024-0.146-4.482-0.529
			c-1.097-0.287-2.173-0.71-3.195-1.202c-1.442-0.698-2.307-1.7-2.307-3.468v-14.74h5.016v12.688c0,1.133,0.119,1.373,1.225,1.703
			c1.27,0.381,2.316,0.525,3.743,0.588c1.426-0.062,2.471-0.207,3.741-0.588c1.106-0.33,1.225-0.569,1.225-1.703V39.831V27.143
			c0-1.133-0.118-1.374-1.225-1.703c-1.27-0.38-2.315-0.524-3.741-0.588h-7.601V19.894z"/>
		<path style="fill-rule:evenodd;clip-rule:evenodd;fill:#666C70;" d="M177.734,19.894h7.601v0.011
			c3.327,0.02,9.122,0.96,9.122,5.149v3.169c0,1.989-0.814,3.343-2.178,4.387c0.505,0.196,0.997,0.411,1.479,0.644
			c1.445,0.698,2.309,1.701,2.309,3.467v3.11v11.631v3.109c0,1.767-0.864,2.77-2.309,3.468c-1.02,0.492-2.095,0.914-3.191,1.202
			c-1.457,0.382-2.966,0.529-4.481,0.529c-1.519,0-3.027-0.146-4.483-0.529c-1.097-0.287-2.173-0.71-3.192-1.202
			c-1.445-0.698-2.309-1.7-2.309-3.468v-3.109V39.831v-3.11c0-1.766,0.863-2.769,2.309-3.467c0.842-0.405,1.719-0.764,2.619-1.038
			l-0.015-0.03l5.262-1.47c1.416-0.395,3.161-0.926,3.161-2.462v-1.146c0-2.191-2.347-2.298-4.103-2.257v0.002h-0.107h-7.494V19.894
			L177.734,19.894z M191.05,39.831v-1.507c0-1.132-0.118-1.372-1.225-1.704c-1.267-0.378-2.315-0.524-3.739-0.586
			c-1.426,0.062-2.473,0.208-3.745,0.586c-1.105,0.332-1.222,0.571-1.222,1.704v1.507v11.631v1.057c0,1.133,0.116,1.373,1.222,1.703
			c1.272,0.381,2.318,0.525,3.745,0.588c1.424-0.062,2.472-0.207,3.739-0.588c1.107-0.33,1.225-0.569,1.225-1.703v-1.057V39.831z"/>
	</g>
</g>
</svg>
